<svg width="1440" height="425" viewBox="0 0 1440 425" fill="none" xmlns="http://www.w3.org/2000/svg">
<path d="M786.654 226.82L709.908 198.001L786.888 223.221L787.587 212.906L734.848 192.073L787.782 210.178L789.037 191.627L731.702 174.954L789.225 188.71L793.415 154.846L793.437 154.705L793.438 154.848L792.778 197.815L856.074 180.422L792.957 201.459L795.457 222.198L795.716 221.65L868.705 203.301L795.63 223.591L795.947 226.185L796.069 226.226L795.978 226.438L799.288 253.888C794.511 253.926 789.687 253.942 784.815 253.935L784.954 251.799L718.363 230.78L785.091 249.758L786.654 226.82Z" fill="#CBCBCB"/>
<path d="M494.655 321.979C572.689 310.882 672.605 300.944 789.598 292.563C802.584 291.629 815.783 290.718 829.194 289.828C831.065 289.703 832.956 289.577 834.847 289.452C851.924 288.33 869.33 287.238 887.063 286.175C917.03 284.384 947.846 282.691 979.511 281.097C1002.18 279.952 1025.24 278.86 1048.71 277.823C1056.25 277.486 1063.82 277.159 1071.42 276.842C1088.7 276.106 1106.19 275.403 1123.89 274.731C1304.79 267.837 1506.51 263.988 1719.21 263.988V379.497H307.462C307.462 358.554 375.578 338.914 494.655 321.979Z" fill="url(#paint0_linear_282_2)"/>
<path d="M457.645 373.503L461.137 373.821C472.994 369.126 487.473 364.69 504.322 360.591L501.273 360.137C484.258 364.279 469.63 368.761 457.645 373.503ZM557.04 348.549L559.683 349.088C578.617 345.721 598.523 342.559 619.309 339.618C620.466 339.452 621.643 339.286 622.82 339.12L620.524 338.526C619.347 338.692 618.17 338.858 616.993 339.028C596.098 341.986 576.082 345.165 557.04 348.549ZM689.084 329.813L691.071 330.444C713.57 327.846 737.71 325.293 762.795 322.853L761.039 322.193C735.877 324.643 711.66 327.208 689.084 329.813ZM835.484 315.502L837.009 316.177C861.38 314.151 886.986 312.173 913.074 310.302L911.724 309.612C885.558 311.487 859.913 313.469 835.484 315.502ZM989.352 304.427L990.529 305.128C997.36 304.704 1004.21 304.287 1011.14 303.87C1030.01 302.744 1049.5 301.637 1069.08 300.589L1068.04 299.877C1048.42 300.929 1028.89 302.036 1009.98 303.169C1003.06 303.583 996.183 304.003 989.352 304.427H989.352ZM1171.76 294.81C1163.67 295.164 1155.53 295.533 1147.58 295.902L1148.49 296.618C1156.44 296.253 1164.56 295.884 1172.65 295.526C1180.31 295.187 1187.93 294.854 1195.32 294.548C1206.34 294.079 1217.53 293.618 1228.57 293.183L1227.8 292.459C1216.72 292.898 1205.53 293.356 1194.49 293.825C1187.1 294.135 1179.44 294.467 1171.76 294.81L1171.76 294.81ZM1308.53 289.514L1309.21 290.241C1335.78 289.352 1363.06 288.518 1390.27 287.765L1389.71 287.035C1362.46 287.791 1335.16 288.625 1308.53 289.514ZM1471.24 285.001L1471.68 285.735C1498.58 285.138 1526.06 284.599 1553.36 284.13L1553.01 283.396C1525.69 283.864 1498.17 284.403 1471.24 285.001H1471.24ZM1635 282.204L1635.24 282.942C1662.33 282.613 1689.92 282.348 1717.24 282.152L1717.11 281.414C1689.73 281.613 1662.12 281.879 1635 282.204H1635Z" fill="white"/>
<path d="M862.421 339.253C1032.92 315.004 1352.78 298.678 1719.21 298.678V379.497H731.438C731.438 364.846 779.1 351.103 862.421 339.253Z" fill="#F1F1F1"/>
<path opacity="0.2" d="M130.805 304.889L494.654 321.979L862.421 339.253L1719.21 379.497H-112C-112 352.332 -23.6618 326.857 130.805 304.889Z" fill="black"/>
<g clip-path="url(#clip0_282_2)">
<path d="M715.131 307.1C800.11 307.1 869 238.353 869 153.55C869 68.7467 800.11 0 715.131 0C630.151 0 561.262 68.7467 561.262 153.55C561.262 238.353 630.151 307.1 715.131 307.1Z" fill="#3F3D56"/>
<path opacity="0.05" d="M715.131 280.311C785.284 280.311 842.155 223.558 842.155 153.55C842.155 83.5426 785.284 26.79 715.131 26.79C644.978 26.79 588.107 83.5426 588.107 153.55C588.107 223.558 644.978 280.311 715.131 280.311Z" fill="black"/>
<path opacity="0.05" d="M715.132 257.442C772.628 257.442 819.239 210.928 819.239 153.55C819.239 96.1729 772.628 49.6592 715.132 49.6592C657.635 49.6592 611.024 96.1729 611.024 153.55C611.024 210.928 657.635 257.442 715.132 257.442Z" fill="black"/>
<path opacity="0.05" d="M715.131 228.038C756.355 228.038 789.774 194.688 789.774 153.55C789.774 112.411 756.355 79.0615 715.131 79.0615C673.907 79.0615 640.488 112.411 640.488 153.55C640.488 194.688 673.907 228.038 715.131 228.038Z" fill="black"/>
<path d="M562.624 167.292C562.624 167.292 550.527 201.273 555.904 213.345C561.28 225.417 569.793 237.042 569.793 237.042C569.793 237.042 566.657 169.528 562.624 167.292Z" fill="#FF003D"/>
<path opacity="0.1" d="M562.098 166C562.098 166 550.001 199.981 555.377 212.053C560.754 224.125 569.267 235.75 569.267 235.75C569.267 235.75 566.131 168.236 562.098 166Z" fill="#423538"/>
<g filter="url(#filter0_d_282_2)">
<path d="M571.137 245.984C571.137 245.984 570.241 254.479 569.793 254.926C569.345 255.373 570.241 256.268 569.793 257.609C569.345 258.95 568.897 260.739 569.793 261.186C570.689 261.633 564.865 300.979 564.865 300.979C564.865 300.979 550.527 319.758 556.352 349.268L558.144 379.224C558.144 379.224 572.034 380.119 572.034 375.2C572.034 375.2 571.137 369.388 571.137 366.705C571.137 364.022 573.378 364.022 572.034 362.681C570.689 361.34 570.689 360.446 570.689 360.446C570.689 360.446 572.93 358.657 572.482 358.21C572.034 357.763 576.514 326.018 576.514 326.018C576.514 326.018 581.442 321.099 581.442 318.417V315.734C581.442 315.734 583.683 309.922 583.683 309.474C583.683 309.027 595.78 281.753 595.78 281.753L600.708 301.426L606.085 329.595C606.085 329.595 608.773 355.08 614.15 364.917C614.15 364.917 623.559 397.109 623.559 396.215C623.559 395.32 639.24 393.085 638.792 389.061C638.344 385.037 629.383 328.7 629.383 328.7L631.623 245.09L571.137 245.984Z" fill="#2F2E41"/>
</g>
<path d="M559.04 376.988C559.04 376.988 546.943 400.686 555.008 401.58C563.072 402.474 566.209 402.474 569.793 398.897C571.753 396.942 575.721 394.318 578.916 392.341C580.809 391.189 582.338 389.527 583.328 387.547C584.318 385.567 584.729 383.349 584.514 381.146C584.277 378.959 583.458 377.156 581.442 376.988C576.066 376.541 569.793 371.623 569.793 371.623L559.04 376.988Z" fill="#2F2E41"/>
<path d="M625.799 394.426C625.799 394.426 613.702 418.123 621.766 419.017C629.831 419.911 632.968 419.912 636.552 416.335C638.511 414.379 642.48 411.755 645.675 409.779C647.568 408.626 649.097 406.965 650.087 404.985C651.077 403.005 651.488 400.786 651.273 398.584C651.036 396.396 650.217 394.594 648.201 394.426C642.824 393.979 636.552 389.061 636.552 389.061L625.799 394.426Z" fill="#2F2E41"/>
<path d="M613.014 128.512C623.416 128.512 631.848 120.097 631.848 109.717C631.848 99.3367 623.416 90.9219 613.014 90.9219C602.612 90.9219 594.18 99.3367 594.18 109.717C594.18 120.097 602.612 128.512 613.014 128.512Z" fill="#FFB8B8"/>
<path d="M600.906 115.893C600.906 115.893 587.453 140.595 586.377 140.595C585.301 140.595 610.592 148.65 610.592 148.65C610.592 148.65 617.588 125.022 618.664 122.874L600.906 115.893Z" fill="#FFB8B8"/>
<path d="M621.543 142.924C621.543 142.924 594.66 128.169 591.972 128.616C589.284 129.064 560.609 154.102 561.057 164.386C561.505 174.669 565.089 191.66 565.089 191.66C565.089 191.66 566.433 239.054 569.122 239.501C571.81 239.948 568.674 247.996 569.57 247.996C570.466 247.996 632.296 247.996 632.744 246.655C633.192 245.313 621.543 142.924 621.543 142.924Z" fill="#FF003D"/>
<path d="M636.552 249.114C636.552 249.114 645.065 275.047 637.896 274.153C630.727 273.258 627.591 251.797 627.591 251.797L636.552 249.114Z" fill="#FFB8B8"/>
<path d="M613.702 141.359C613.702 141.359 597.124 144.936 599.812 167.292C602.501 189.648 607.429 212.003 607.429 212.003L624.007 248.22L625.799 254.926L637.896 251.797L628.935 199.931C628.935 199.931 625.799 144.489 621.767 142.701C619.224 141.619 616.459 141.159 613.702 141.359Z" fill="#FF003D"/>
<path opacity="0.1" d="M603.621 211.333L624.231 247.996L606.867 209.363L603.621 211.333Z" fill="black"/>
<path d="M631.764 104.183L631.826 102.747L634.689 103.458C634.658 102.997 634.528 102.548 634.306 102.142C634.085 101.736 633.778 101.383 633.406 101.108L636.456 100.937C633.897 97.3084 630.627 94.2346 626.845 91.9017C623.062 89.5688 618.845 88.0252 614.447 87.3642C607.851 86.4101 600.506 87.7908 595.982 92.6763C593.788 95.046 592.409 98.0596 591.429 101.134C589.622 106.796 589.254 113.546 593.021 118.149C596.849 122.827 603.535 123.743 609.559 124.322C611.679 124.526 613.9 124.715 615.864 123.895C616.083 121.646 615.794 119.378 615.02 117.255C614.698 116.598 614.544 115.871 614.572 115.14C614.839 113.352 617.23 112.901 619.026 113.143C620.821 113.385 622.981 113.754 624.161 112.382C624.974 111.437 624.926 110.06 625.033 108.819C625.326 105.441 631.733 104.891 631.764 104.183Z" fill="#2F2E41"/>
</g>
<defs>
<filter id="filter0_d_282_2" x="550.96" y="245.09" width="91.8418" height="159.144" filterUnits="userSpaceOnUse" color-interpolation-filters="sRGB">
<feFlood flood-opacity="0" result="BackgroundImageFix"/>
<feColorMatrix in="SourceAlpha" type="matrix" values="0 0 0 0 0 0 0 0 0 0 0 0 0 0 0 0 0 0 127 0" result="hardAlpha"/>
<feOffset dy="4"/>
<feGaussianBlur stdDeviation="2"/>
<feComposite in2="hardAlpha" operator="out"/>
<feColorMatrix type="matrix" values="0 0 0 0 0 0 0 0 0 0 0 0 0 0 0 0 0 0 0.25 0"/>
<feBlend mode="normal" in2="BackgroundImageFix" result="effect1_dropShadow_282_2"/>
<feBlend mode="normal" in="SourceGraphic" in2="effect1_dropShadow_282_2" result="shape"/>
</filter>
<linearGradient id="paint0_linear_282_2" x1="335.5" y1="379.504" x2="685.468" y2="-198.428" gradientUnits="userSpaceOnUse">
<stop stop-color="#FF003D"/>
<stop offset="1" stop-color="#FF003D" stop-opacity="0"/>
</linearGradient>
<clipPath id="clip0_282_2">
<rect width="407" height="425" fill="white" transform="translate(462)"/>
</clipPath>
</defs>
</svg>
