<svg width="30" height="30" viewBox="0 0 30 30" fill="none" xmlns="http://www.w3.org/2000/svg">
<path d="M19.6875 15.4764V25.5469C19.6875 26.9707 18.5713 28.125 17.1709 28.125H6.26953C4.86621 28.125 3.75 26.9707 3.75 25.5469V10.0781C3.754 9.3956 4.0269 8.74216 4.50953 8.25953C4.99216 7.7769 5.6456 7.504 6.32812 7.5H11.843C12.0339 7.50029 12.2228 7.53857 12.3987 7.61261C12.5747 7.68665 12.7341 7.79497 12.8678 7.93125L19.2633 14.4352C19.5354 14.7134 19.6877 15.0872 19.6875 15.4764V15.4764Z" stroke="white" stroke-width="2" stroke-linejoin="round"/>
<path d="M11.7188 7.5V13.8281C11.7239 14.2616 11.8984 14.6759 12.205 14.9825C12.5116 15.2891 12.9259 15.4636 13.3594 15.4688H19.6875" stroke="white" stroke-width="2" stroke-linecap="round" stroke-linejoin="round"/>
<path d="M10.3125 7.5V4.45312C10.3165 3.7706 10.5894 3.11716 11.072 2.63453C11.5547 2.1519 12.2081 1.879 12.8906 1.875H18.3984C18.5904 1.87527 18.7804 1.91351 18.9574 1.98752C19.1345 2.06154 19.2952 2.16986 19.4303 2.30625L25.8258 8.81016C26.0977 9.08544 26.2501 9.45682 26.25 9.84375V19.9219C26.25 21.3457 25.1338 22.5 23.7334 22.5H20.1562" stroke="white" stroke-width="2" stroke-linejoin="round"/>
<path d="M18.2812 1.875V8.20312C18.2864 8.63664 18.4609 9.05094 18.7675 9.3575C19.0741 9.66407 19.4884 9.83858 19.9219 9.84375H26.25" stroke="white" stroke-width="2" stroke-linecap="round" stroke-linejoin="round"/>
</svg>
